<svg width="800" height="800" version="1.1" xmlns="http://www.w3.org/2000/svg" desc="Created with imagetracer.js version 1.2.6" ><path fill="rgb(239,110,52)" stroke="rgb(239,110,52)" stroke-width="1" opacity="0.9921568627450981" d="M 36.5 347 L 355.5 347 Q 365.8 349.7 372 356.5 L 377 364.5 L 380 378.5 L 380 429.5 L 377 441.5 L 368.5 452 L 362.5 456 L 351.5 459 L 40.5 459 L 27.5 455 L 18 446.5 L 14 439.5 L 12 431.5 L 12 373.5 Q 14.3 359.8 23.5 353 L 36.5 347 Z M 116 383 L 107 387 Q 101 391 99 400 L 99 409 L 103 418 L 110 423 L 117 425 Q 128 426 134 420 L 140 409 L 140 400 L 135 390 Q 129 382 116 383 Z M 315 383 L 304 388 Q 298 392 296 401 Q 295 411 300 417 Q 304 423 314 425 L 322 425 L 331 421 L 336 413 Q 335 408 337 407 L 336 403 L 334 401 L 319 402 Q 316 403 317 409 Q 319 411 325 410 L 326 413 L 324 415 L 319 416 L 312 414 L 307 408 Q 306 400 309 397 L 314 393 Q 323 391 327 396 L 330 395 Q 334 394 333 389 L 323 383 L 315 383 Z M 58 384 L 56 386 L 56 423 L 58 424 L 66 424 L 66 423 L 66 421 L 66 404 L 68 402 L 67 404 L 69 404 L 82 423 L 84 424 L 92 424 L 93 423 L 93 386 Q 91 382 85 384 L 83 386 L 83 404 L 82 404 L 82 406 L 69 389 Q 67 382 58 384 Z M 144 384 Q 141 386 142 392 L 144 393 L 153 393 L 154 395 L 154 424 L 163 424 L 164 423 L 164 394 L 174 393 Q 177 392 175 386 L 174 384 L 144 384 Z M 183 384 L 181 386 L 181 424 L 190 424 L 191 423 L 191 409 L 205 408 L 206 410 L 206 424 L 215 424 L 216 423 L 216 386 L 215 384 L 207 384 L 206 399 L 192 399 L 191 386 Q 189 382 183 384 Z M 225 384 Q 222 385 223 391 Q 224 394 228 393 L 230 394 L 230 415 L 229 416 L 227 415 L 225 416 Q 222 417 223 423 L 225 424 L 246 424 L 247 422 L 246 417 L 242 416 L 240 415 L 240 394 L 245 393 Q 248 391 246 385 L 225 384 Z M 255 384 L 255 424 L 263 424 L 264 423 L 264 410 L 263 409 L 264 402 L 264 404 L 266 403 Q 268 404 266 406 L 268 406 L 282 424 L 290 424 L 290 384 L 282 384 L 280 386 L 280 403 L 281 406 L 279 407 L 280 405 L 279 405 L 264 386 L 263 384 L 255 384 Z " /><path fill="rgb(239,110,52)" stroke="rgb(239,110,52)" stroke-width="1" opacity="0.9921568627450981" d="M 115.5 393 Q 125.6 391.4 128 397.5 L 130 405.5 Q 128.5 412 123.5 415 Q 113.8 416.8 111 411.5 Q 107.7 407.8 109 399.5 L 113.5 394 L 115.5 393 Z " /><path fill="rgb(239,110,52)" stroke="rgb(239,110,52)" stroke-width="1" opacity="0.9921568627450981" d="M 554.5 397 L 555 399.5 L 554 399.5 L 554.5 397 Z " /><path fill="rgb(239,110,52)" stroke="rgb(239,110,52)" stroke-width="1" opacity="0.9921568627450981" d="M 733.5 397 L 734.5 399 L 733.5 397 Z " /><path fill="rgb(239,110,52)" stroke="rgb(239,110,52)" stroke-width="1" opacity="0.9921568627450981" d="M 588.5 398 L 589 400.5 L 588 400.5 L 588.5 398 Z " /><path fill="rgb(239,110,52)" stroke="rgb(239,110,52)" stroke-width="1" opacity="0.9921568627450981" d="M 745.5 398 L 746 401.5 L 745 401.5 L 745.5 398 Z " /><path fill="rgb(239,110,52)" stroke="rgb(239,110,52)" stroke-width="1" opacity="0.9921568627450981" d="M 763.5 400 L 762.5 402 L 763.5 400 Z " /><path fill="rgb(239,110,52)" stroke="rgb(239,110,52)" stroke-width="1" opacity="0.9921568627450981" d="M 609.5 404 L 610 406.5 L 609 406.5 L 609.5 404 Z " /><path fill="rgb(239,110,52)" stroke="rgb(239,110,52)" stroke-width="1" opacity="0.9921568627450981" d="M 515.5 407 Q 520.8 405.8 522 408.5 L 520.5 408 Q 514.5 409.3 515.5 407 Z " /><path fill="rgb(239,110,52)" stroke="rgb(239,110,52)" stroke-width="1" opacity="0.9921568627450981" d="M 759.5 409 L 760 411.5 L 759 411.5 L 759.5 409 Z " /><path fill="rgb(239,110,52)" stroke="rgb(239,110,52)" stroke-width="1" opacity="0.9921568627450981" d="M 588.5 417 L 589 422.5 L 588 422.5 L 588.5 417 Z " /><path fill="rgb(239,110,52)" stroke="rgb(239,110,52)" stroke-width="1" opacity="0.9921568627450981" d="M 444.5 418 L 454 418.5 L 444.5 419 L 444.5 418 Z " /><path fill="rgb(239,110,52)" stroke="rgb(239,110,52)" stroke-width="1" opacity="0.9921568627450981" d="M 515.5 418 L 523 418.5 L 515.5 419 L 515.5 418 Z " /><path fill="rgb(239,110,52)" stroke="rgb(239,110,52)" stroke-width="1" opacity="0.9921568627450981" d="M 570.5 418 L 579.5 418 L 581 419.5 L 580.5 423 L 579.5 419 L 570.5 419 L 570.5 418 Z " /><path fill="rgb(253,187,141)" stroke="rgb(253,187,141)" stroke-width="1" opacity="0.9921568627450981" d="M 383.5 0 L 432.5 1 L 433.5 2 L 442.5 2 L 443.5 3 L 451.5 3 L 452.5 4 L 470.5 6 L 509.5 15 L 552.5 30 Q 636.8 65.7 694 128.5 Q 747.3 185.2 777 265.5 L 788 301.5 L 796 341.5 L 798 366.5 L 799 367.5 L 799 382.5 L 800 383.5 L 800 416.5 L 799 417.5 L 799 432.5 L 798 433.5 L 797 451.5 L 789 494.5 L 777 534.5 L 764 566.5 Q 728.9 641.4 671.5 694 Q 614.8 747.3 534.5 777 L 498.5 788 L 458.5 796 L 433.5 798 L 432.5 799 L 417.5 799 L 416.5 800 L 383.5 800 L 382.5 799 L 367.5 799 L 366.5 798 L 348.5 797 L 305.5 789 L 265.5 777 L 233.5 764 Q 159.3 729.2 107 672.5 Q 53 615.5 23 534.5 L 12 498.5 L 4 458.5 L 2 433.5 L 1 432.5 L 1 417.5 L 0 416.5 L 0 383.5 L 1 382.5 L 1 367.5 L 2 366.5 L 3 348.5 L 11 305.5 L 23 265.5 L 36 233.5 Q 70.8 159.3 127.5 107 Q 178.2 59.2 247.5 30 Q 278.5 17 314.5 9 L 348.5 3 L 366.5 2 L 367.5 1 L 382.5 1 L 383.5 0 Z M 37 347 L 24 353 Q 14 360 12 374 L 12 432 L 14 440 L 18 447 L 28 455 L 41 459 L 352 459 L 363 456 L 369 452 L 377 442 L 380 430 L 380 379 L 377 365 L 372 357 Q 366 350 356 347 L 37 347 Z M 404 397 L 404 400 L 413 412 L 413 424 L 419 424 L 420 423 L 420 412 L 429 398 L 423 397 L 418 406 L 417 406 L 412 400 Q 411 396 404 397 Z M 436 397 L 436 424 L 454 424 L 454 418 L 445 418 L 444 419 L 442 418 L 441 414 L 452 413 Q 453 408 451 407 L 450 408 L 442 408 L 441 404 L 454 403 L 454 398 L 436 397 Z M 462 397 Q 459 398 460 402 Q 461 404 468 403 L 468 424 L 474 424 L 474 404 L 482 403 L 483 400 L 482 398 L 462 397 Z M 506 397 L 505 424 L 523 424 Q 525 423 524 420 L 523 418 L 512 418 L 511 414 L 522 413 Q 523 408 521 407 L 512 408 L 511 404 L 523 403 L 523 398 L 506 397 Z M 530 397 L 531 405 L 539 424 L 545 424 L 555 398 L 550 397 L 543 415 L 536 399 Q 535 396 530 397 Z M 562 397 L 561 423 L 563 424 L 580 424 L 581 423 Q 582 419 580 418 L 570 418 L 569 419 Q 566 418 567 415 L 569 413 L 578 413 L 579 410 L 578 408 L 569 408 Q 566 407 567 404 L 579 403 Q 581 402 580 398 L 562 397 Z M 590 397 L 588 399 L 589 402 L 588 423 Q 589 425 594 424 Q 597 422 595 416 L 599 415 L 605 424 L 610 424 L 605 414 L 608 412 L 610 407 L 609 402 L 603 397 L 590 397 Z M 615 397 L 615 401 L 624 413 L 624 424 L 630 424 L 630 413 L 639 400 L 639 398 L 634 397 L 629 405 L 627 406 L 621 398 L 615 397 Z M 645 397 L 644 403 L 651 403 L 652 405 L 652 424 L 658 424 L 658 404 L 666 403 L 666 398 L 645 397 Z M 674 397 L 673 424 L 679 424 L 679 414 L 689 413 L 689 423 Q 690 425 696 424 L 696 399 Q 695 396 690 397 L 689 408 L 681 408 L 679 407 L 679 398 L 674 397 Z M 705 397 L 704 403 L 708 403 L 709 406 L 708 419 L 706 418 Q 703 419 704 423 L 706 424 L 719 424 L 719 419 L 716 418 L 715 404 L 718 403 Q 720 402 719 398 L 705 397 Z M 729 397 L 728 424 L 734 424 L 735 408 L 747 424 L 752 424 L 752 397 Q 746 396 745 399 L 746 403 L 746 413 L 735 399 Q 734 396 729 397 Z M 769 397 L 764 400 L 759 410 L 761 419 Q 764 423 770 424 L 781 423 L 786 416 L 786 410 L 774 409 L 773 414 L 780 414 L 780 416 L 775 419 L 769 417 L 766 413 L 767 406 L 774 402 L 781 405 Q 784 404 783 401 Q 780 395 769 397 Z " /><path fill="rgb(253,187,141)" stroke="rgb(253,187,141)" stroke-width="1" opacity="0.9921568627450981" d="M 115.5 383 Q 129.3 382.2 135 389.5 L 140 399.5 L 140 408.5 L 133.5 420 Q 128 425.5 116.5 425 L 109.5 423 L 103 417.5 L 99 408.5 L 99 399.5 Q 100.7 391.2 106.5 387 L 115.5 383 Z M 116 393 L 114 394 L 109 400 Q 108 408 111 412 Q 114 417 124 415 Q 128 412 130 406 L 128 398 Q 126 391 116 393 Z " /><path fill="rgb(253,187,141)" stroke="rgb(253,187,141)" stroke-width="1" opacity="0.9921568627450981" d="M 314.5 383 L 322.5 383 L 333 388.5 Q 333.8 394.3 329.5 395 L 326.5 396 Q 323.4 391.1 313.5 393 L 309 396.5 Q 305.8 399.8 307 407.5 L 311.5 414 L 318.5 416 L 323.5 415 L 326 412.5 L 325.5 410 Q 319.4 411.1 317 408.5 Q 315.8 403.3 318.5 402 L 333.5 401 L 336 402.5 L 337 406.5 Q 334.8 407.8 336 412.5 L 330.5 421 L 321.5 425 L 313.5 425 Q 304.3 423.3 300 416.5 Q 295.1 411.4 296 400.5 Q 297.7 392.2 303.5 388 L 314.5 383 Z " /><path fill="rgb(253,187,141)" stroke="rgb(253,187,141)" stroke-width="1" opacity="0.9921568627450981" d="M 57.5 384 Q 67.3 382.3 69 388.5 L 82.5 407 L 83 385.5 L 84.5 384 Q 91.3 382.3 93 385.5 L 93 422.5 L 91.5 424 L 83.5 424 L 82 422.5 L 66.5 401 L 66 420.5 L 66 422.5 L 65.5 424 L 57.5 424 L 56 422.5 L 56 385.5 L 57.5 384 Z " /><path fill="rgb(253,187,141)" stroke="rgb(253,187,141)" stroke-width="1" opacity="0.9921568627450981" d="M 143.5 384 L 173.5 384 L 175 385.5 Q 176.5 391.5 173.5 393 L 164 393.5 L 164 422.5 L 162.5 424 L 154 423.5 L 154 394.5 L 152.5 393 L 143.5 393 L 142 391.5 Q 140.5 385.5 143.5 384 Z " /><path fill="rgb(253,187,141)" stroke="rgb(253,187,141)" stroke-width="1" opacity="0.9921568627450981" d="M 182.5 384 Q 189.3 382.3 191 385.5 L 191.5 399 L 206 398.5 L 206.5 384 L 214.5 384 L 216 385.5 L 216 422.5 L 214.5 424 L 206 423.5 L 206 409.5 L 204.5 408 L 191 408.5 L 191 422.5 L 189.5 424 L 181 423.5 L 181 385.5 L 182.5 384 Z " /><path fill="rgb(253,187,141)" stroke="rgb(253,187,141)" stroke-width="1" opacity="0.9921568627450981" d="M 224.5 384 L 246 384.5 Q 247.8 391.3 244.5 393 L 240 393.5 L 240 414.5 L 241.5 416 L 246 416.5 L 247 421.5 L 245.5 424 L 224.5 424 L 223 422.5 Q 221.8 417.3 224.5 416 L 226.5 415 L 228.5 416 L 230 414.5 L 230 393.5 Q 224.5 394 223 390.5 Q 221.8 385.3 224.5 384 Z " /><path fill="rgb(253,187,141)" stroke="rgb(253,187,141)" stroke-width="1" opacity="0.9921568627450981" d="M 254.5 384 L 262.5 384 L 264 385.5 L 279.5 407 L 281 406.5 Q 278.3 398.2 280 385.5 L 281.5 384 L 289.5 384 L 290 423.5 L 281.5 424 L 263.5 401 L 263 408.5 L 264 409.5 L 264 422.5 L 262.5 424 L 254.5 424 L 254.5 384 Z " /><path fill="rgb(253,187,141)" stroke="rgb(253,187,141)" stroke-width="1" opacity="0.9921568627450981" d="M 595.5 402 Q 601.3 401.2 603 404.5 Q 603.8 408.3 601.5 409 L 597.5 410 L 594 407.5 Q 593 403 595.5 402 Z " /><path fill="rgb(254,186,139)" stroke="rgb(254,186,139)" stroke-width="1" opacity="0.27058823529411763" d="M 374.5 0 L 383 0.5 L 374.5 1 L 374.5 0 Z " /><path fill="rgb(254,186,139)" stroke="rgb(254,186,139)" stroke-width="1" opacity="0.27058823529411763" d="M 417.5 0 L 426 0.5 L 417.5 1 L 417.5 0 Z " /><path fill="rgb(254,186,139)" stroke="rgb(254,186,139)" stroke-width="1" opacity="0.27058823529411763" d="M 361.5 1 L 367 1.5 L 361.5 2 L 361.5 1 Z " /><path fill="rgb(254,186,139)" stroke="rgb(254,186,139)" stroke-width="1" opacity="0.27058823529411763" d="M 433.5 1 L 439 1.5 L 433.5 2 L 433.5 1 Z " /><path fill="rgb(254,186,139)" stroke="rgb(254,186,139)" stroke-width="1" opacity="0.27058823529411763" d="M 352.5 2 L 357 2.5 L 352.5 3 L 352.5 2 Z " /><path fill="rgb(254,186,139)" stroke="rgb(254,186,139)" stroke-width="1" opacity="0.27058823529411763" d="M 443.5 2 L 448 2.5 L 443.5 3 L 443.5 2 Z " /><path fill="rgb(254,186,139)" stroke="rgb(254,186,139)" stroke-width="1" opacity="0.27058823529411763" d="M 345.5 3 L 348 3.5 L 345.5 4 L 345.5 3 Z " /><path fill="rgb(254,186,139)" stroke="rgb(254,186,139)" stroke-width="1" opacity="0.27058823529411763" d="M 452.5 3 L 456 3.5 L 452.5 4 L 452.5 3 Z " /><path fill="rgb(254,186,139)" stroke="rgb(254,186,139)" stroke-width="1" opacity="0.27058823529411763" d="M 338.5 4 L 341 4.5 L 338.5 5 L 338.5 4 Z " /><path fill="rgb(254,186,139)" stroke="rgb(254,186,139)" stroke-width="1" opacity="0.27058823529411763" d="M 459.5 4 L 462 4.5 L 459.5 5 L 459.5 4 Z " /><path fill="rgb(254,186,139)" stroke="rgb(254,186,139)" stroke-width="1" opacity="0.27058823529411763" d="M 332.5 5 L 335 5.5 L 332.5 6 L 332.5 5 Z " /><path fill="rgb(254,186,139)" stroke="rgb(254,186,139)" stroke-width="1" opacity="0.27058823529411763" d="M 465.5 5 L 468 5.5 L 465.5 6 L 465.5 5 Z " /><path fill="rgb(254,186,139)" stroke="rgb(254,186,139)" stroke-width="1" opacity="0.27058823529411763" d="M 326.5 6 L 329 6.5 L 326.5 7 L 326.5 6 Z " /><path fill="rgb(254,186,139)" stroke="rgb(254,186,139)" stroke-width="1" opacity="0.27058823529411763" d="M 471.5 6 L 474 6.5 L 471.5 7 L 471.5 6 Z " /><path fill="rgb(254,186,139)" stroke="rgb(254,186,139)" stroke-width="1" opacity="0.27058823529411763" d="M 321.5 7 L 324 7.5 L 321.5 8 L 321.5 7 Z " /><path fill="rgb(254,186,139)" stroke="rgb(254,186,139)" stroke-width="1" opacity="0.27058823529411763" d="M 476.5 7 L 479 7.5 L 476.5 8 L 476.5 7 Z " /><path fill="rgb(254,186,139)" stroke="rgb(254,186,139)" stroke-width="1" opacity="0.27058823529411763" d="M 316.5 8 L 319 8.5 L 316.5 9 L 316.5 8 Z " /><path fill="rgb(254,186,139)" stroke="rgb(254,186,139)" stroke-width="1" opacity="0.27058823529411763" d="M 481.5 8 L 484 8.5 L 481.5 9 L 481.5 8 Z " /><path fill="rgb(254,186,139)" stroke="rgb(254,186,139)" stroke-width="1" opacity="0.27058823529411763" d="M 307.5 10 L 310 10.5 L 307.5 11 L 307.5 10 Z " /><path fill="rgb(254,186,139)" stroke="rgb(254,186,139)" stroke-width="1" opacity="0.27058823529411763" d="M 490.5 10 L 493 10.5 L 490.5 11 L 490.5 10 Z " /><path fill="rgb(254,186,139)" stroke="rgb(254,186,139)" stroke-width="1" opacity="0.27058823529411763" d="M 295.5 13 L 298 13.5 L 295.5 14 L 295.5 13 Z " /><path fill="rgb(254,186,139)" stroke="rgb(254,186,139)" stroke-width="1" opacity="0.27058823529411763" d="M 502.5 13 L 505 13.5 L 502.5 14 L 502.5 13 Z " /><path fill="rgb(254,186,139)" stroke="rgb(254,186,139)" stroke-width="1" opacity="0.27058823529411763" d="M 243.5 31 L 245 31.5 L 241.5 33 L 241.5 32 L 243.5 31 Z " /><path fill="rgb(254,186,139)" stroke="rgb(254,186,139)" stroke-width="1" opacity="0.27058823529411763" d="M 555.5 31 L 559 32.5 L 557.5 33 L 555.5 31 Z " /><path fill="rgb(254,186,139)" stroke="rgb(254,186,139)" stroke-width="1" opacity="0.27058823529411763" d="M 236.5 34 L 238 34.5 L 234.5 36 L 234.5 35 L 236.5 34 Z " /><path fill="rgb(254,186,139)" stroke="rgb(254,186,139)" stroke-width="1" opacity="0.27058823529411763" d="M 562.5 34 L 566 35.5 L 564.5 36 L 562.5 34 Z " /><path fill="rgb(254,186,139)" stroke="rgb(254,186,139)" stroke-width="1" opacity="0.27058823529411763" d="M 208.5 48 L 207.5 50 L 205.5 51 L 206.5 49 L 208.5 48 Z " /><path fill="rgb(254,186,139)" stroke="rgb(254,186,139)" stroke-width="1" opacity="0.27058823529411763" d="M 591.5 48 L 595 50.5 L 593.5 50 L 591.5 48 Z " /><path fill="rgb(254,186,139)" stroke="rgb(254,186,139)" stroke-width="1" opacity="0.27058823529411763" d="M 201.5 52 L 200.5 54 L 198.5 55 L 199.5 53 L 201.5 52 Z " /><path fill="rgb(254,186,139)" stroke="rgb(254,186,139)" stroke-width="1" opacity="0.27058823529411763" d="M 598.5 52 L 602 54.5 L 600.5 54 L 598.5 52 Z " /><path fill="rgb(254,186,139)" stroke="rgb(254,186,139)" stroke-width="1" opacity="0.27058823529411763" d="M 194.5 56 L 193.5 58 L 191.5 59 L 192.5 57 L 194.5 56 Z " /><path fill="rgb(254,186,139)" stroke="rgb(254,186,139)" stroke-width="1" opacity="0.27058823529411763" d="M 605.5 56 L 609 58.5 L 607.5 58 L 605.5 56 Z " /><path fill="rgb(254,186,139)" stroke="rgb(254,186,139)" stroke-width="1" opacity="0.27058823529411763" d="M 189.5 59 L 188.5 61 L 189.5 59 Z " /><path fill="rgb(254,186,139)" stroke="rgb(254,186,139)" stroke-width="1" opacity="0.27058823529411763" d="M 610.5 59 L 611.5 61 L 610.5 59 Z " /><path fill="rgb(254,186,139)" stroke="rgb(254,186,139)" stroke-width="1" opacity="0.27058823529411763" d="M 186.5 61 L 185.5 63 L 180.5 66 L 181.5 64 L 186.5 61 Z " /><path fill="rgb(254,186,139)" stroke="rgb(254,186,139)" stroke-width="1" opacity="0.27058823529411763" d="M 613.5 61 L 620 65.5 L 618.5 65 Q 613.9 63.8 613.5 61 Z " /><path fill="rgb(254,186,139)" stroke="rgb(254,186,139)" stroke-width="1" opacity="0.27058823529411763" d="M 178.5 66 L 177.5 68 L 178.5 66 Z " /><path fill="rgb(254,186,139)" stroke="rgb(254,186,139)" stroke-width="1" opacity="0.27058823529411763" d="M 621.5 66 L 622.5 68 L 621.5 66 Z " /><path fill="rgb(254,186,139)" stroke="rgb(254,186,139)" stroke-width="1" opacity="0.27058823529411763" d="M 175.5 68 L 173.5 71 L 170.5 73 L 172.5 70 L 175.5 68 Z " /><path fill="rgb(254,186,139)" stroke="rgb(254,186,139)" stroke-width="1" opacity="0.27058823529411763" d="M 624.5 68 L 630 72.5 L 627.5 71 L 624.5 68 Z " /><path fill="rgb(254,186,139)" stroke="rgb(254,186,139)" stroke-width="1" opacity="0.27058823529411763" d="M 168.5 73 L 167.5 75 L 168.5 73 Z " /><path fill="rgb(254,186,139)" stroke="rgb(254,186,139)" stroke-width="1" opacity="0.27058823529411763" d="M 631.5 73 L 632.5 75 L 631.5 73 Z " /><path fill="rgb(254,186,139)" stroke="rgb(254,186,139)" stroke-width="1" opacity="0.27058823529411763" d="M 165.5 75 L 163.5 78 L 165.5 75 Z " /><path fill="rgb(254,186,139)" stroke="rgb(254,186,139)" stroke-width="1" opacity="0.27058823529411763" d="M 634.5 75 L 636.5 78 L 634.5 75 Z " /><path fill="rgb(254,186,139)" stroke="rgb(254,186,139)" stroke-width="1" opacity="0.27058823529411763" d="M 161.5 78 L 159.5 81 L 161.5 78 Z " /><path fill="rgb(254,186,139)" stroke="rgb(254,186,139)" stroke-width="1" opacity="0.27058823529411763" d="M 638.5 78 L 640.5 81 L 638.5 78 Z " /><path fill="rgb(254,186,139)" stroke="rgb(254,186,139)" stroke-width="1" opacity="0.27058823529411763" d="M 157.5 81 L 155.5 84 L 157.5 81 Z " /><path fill="rgb(254,186,139)" stroke="rgb(254,186,139)" stroke-width="1" opacity="0.27058823529411763" d="M 642.5 81 L 644.5 84 L 642.5 81 Z " /><path fill="rgb(254,186,139)" stroke="rgb(254,186,139)" stroke-width="1" opacity="0.27058823529411763" d="M 153.5 84 L 150.5 88 L 153.5 84 Z " /><path fill="rgb(254,186,139)" stroke="rgb(254,186,139)" stroke-width="1" opacity="0.27058823529411763" d="M 646.5 84 L 649.5 88 L 646.5 84 Z " /><path fill="rgb(254,186,139)" stroke="rgb(254,186,139)" stroke-width="1" opacity="0.27058823529411763" d="M 148.5 88 L 145.5 92 L 148.5 88 Z " /><path fill="rgb(254,186,139)" stroke="rgb(254,186,139)" stroke-width="1" opacity="0.27058823529411763" d="M 651.5 88 L 654.5 92 L 651.5 88 Z " /><path fill="rgb(254,186,139)" stroke="rgb(254,186,139)" stroke-width="1" opacity="0.27058823529411763" d="M 143.5 92 L 138.5 98 L 143.5 92 Z " /><path fill="rgb(254,186,139)" stroke="rgb(254,186,139)" stroke-width="1" opacity="0.27058823529411763" d="M 656.5 92 L 661.5 98 L 656.5 92 Z " /><path fill="rgb(254,186,139)" stroke="rgb(254,186,139)" stroke-width="1" opacity="0.27058823529411763" d="M 136.5 98 L 128.5 107 L 136.5 98 Z " /><path fill="rgb(254,186,139)" stroke="rgb(254,186,139)" stroke-width="1" opacity="0.27058823529411763" d="M 663.5 98 L 671.5 107 L 663.5 98 Z " /><path fill="rgb(254,186,139)" stroke="rgb(254,186,139)" stroke-width="1" opacity="0.27058823529411763" d="M 126.5 107 L 108.5 126 L 126.5 107 Z " /><path fill="rgb(254,186,139)" stroke="rgb(254,186,139)" stroke-width="1" opacity="0.27058823529411763" d="M 673.5 107 L 692.5 127 L 673.5 107 Z " /><path fill="rgb(254,186,139)" stroke="rgb(254,186,139)" stroke-width="1" opacity="0.27058823529411763" d="M 106.5 128 L 98.5 137 L 106.5 128 Z " /><path fill="rgb(254,186,139)" stroke="rgb(254,186,139)" stroke-width="1" opacity="0.27058823529411763" d="M 694.5 129 L 701.5 137 L 694.5 129 Z " /><path fill="rgb(254,186,139)" stroke="rgb(254,186,139)" stroke-width="1" opacity="0.27058823529411763" d="M 97.5 138 L 92.5 144 L 97.5 138 Z " /><path fill="rgb(254,186,139)" stroke="rgb(254,186,139)" stroke-width="1" opacity="0.27058823529411763" d="M 702.5 138 L 707.5 144 L 702.5 138 Z " /><path fill="rgb(254,186,139)" stroke="rgb(254,186,139)" stroke-width="1" opacity="0.27058823529411763" d="M 91.5 145 L 88.5 149 L 91.5 145 Z " /><path fill="rgb(254,186,139)" stroke="rgb(254,186,139)" stroke-width="1" opacity="0.27058823529411763" d="M 708.5 145 L 711.5 149 L 708.5 145 Z " /><path fill="rgb(254,186,139)" stroke="rgb(254,186,139)" stroke-width="1" opacity="0.27058823529411763" d="M 87.5 150 L 84.5 154 L 87.5 150 Z " /><path fill="rgb(254,186,139)" stroke="rgb(254,186,139)" stroke-width="1" opacity="0.27058823529411763" d="M 712.5 150 L 715.5 154 L 712.5 150 Z " /><path fill="rgb(254,186,139)" stroke="rgb(254,186,139)" stroke-width="1" opacity="0.27058823529411763" d="M 83.5 155 L 81.5 158 L 83.5 155 Z " /><path fill="rgb(254,186,139)" stroke="rgb(254,186,139)" stroke-width="1" opacity="0.27058823529411763" d="M 716.5 155 L 718.5 158 L 716.5 155 Z " /><path fill="rgb(254,186,139)" stroke="rgb(254,186,139)" stroke-width="1" opacity="0.27058823529411763" d="M 80.5 159 L 78.5 162 L 80.5 159 Z " /><path fill="rgb(254,186,139)" stroke="rgb(254,186,139)" stroke-width="1" opacity="0.27058823529411763" d="M 719.5 159 L 721.5 162 L 719.5 159 Z " /><path fill="rgb(254,186,139)" stroke="rgb(254,186,139)" stroke-width="1" opacity="0.27058823529411763" d="M 77.5 163 L 75.5 166 L 77.5 163 Z " /><path fill="rgb(254,186,139)" stroke="rgb(254,186,139)" stroke-width="1" opacity="0.27058823529411763" d="M 722.5 163 L 724.5 166 L 722.5 163 Z " /><path fill="rgb(254,186,139)" stroke="rgb(254,186,139)" stroke-width="1" opacity="0.27058823529411763" d="M 74.5 167 L 73.5 169 L 74.5 167 Z " /><path fill="rgb(254,186,139)" stroke="rgb(254,186,139)" stroke-width="1" opacity="0.27058823529411763" d="M 725.5 167 L 726.5 169 L 725.5 167 Z " /><path fill="rgb(254,186,139)" stroke="rgb(254,186,139)" stroke-width="1" opacity="0.27058823529411763" d="M 72.5 170 L 71 172.5 L 68.5 176 L 70 173.5 L 72.5 170 Z " /><path fill="rgb(254,186,139)" stroke="rgb(254,186,139)" stroke-width="1" opacity="0.27058823529411763" d="M 727.5 170 L 732 175.5 L 729 173.5 L 727.5 170 Z " /><path fill="rgb(254,186,139)" stroke="rgb(254,186,139)" stroke-width="1" opacity="0.27058823529411763" d="M 67.5 177 L 66.5 179 L 67.5 177 Z " /><path fill="rgb(254,186,139)" stroke="rgb(254,186,139)" stroke-width="1" opacity="0.27058823529411763" d="M 732.5 177 L 733.5 179 L 732.5 177 Z " /><path fill="rgb(254,186,139)" stroke="rgb(254,186,139)" stroke-width="1" opacity="0.27058823529411763" d="M 65.5 180 L 65 181.5 L 61.5 187 L 62 185.5 L 65.5 180 Z " /><path fill="rgb(254,186,139)" stroke="rgb(254,186,139)" stroke-width="1" opacity="0.27058823529411763" d="M 734.5 180 L 739 186.5 L 737 185.5 L 734.5 180 Z " /><path fill="rgb(254,186,139)" stroke="rgb(254,186,139)" stroke-width="1" opacity="0.27058823529411763" d="M 60.5 188 L 59.5 190 L 60.5 188 Z " /><path fill="rgb(254,186,139)" stroke="rgb(254,186,139)" stroke-width="1" opacity="0.27058823529411763" d="M 739.5 188 L 740.5 190 L 739.5 188 Z " /><path fill="rgb(254,186,139)" stroke="rgb(254,186,139)" stroke-width="1" opacity="0.27058823529411763" d="M 58.5 191 L 58 192.5 L 56.5 195 L 57 193.5 L 58.5 191 Z " /><path fill="rgb(254,186,139)" stroke="rgb(254,186,139)" stroke-width="1" opacity="0.27058823529411763" d="M 741.5 191 L 744 194.5 L 742 193.5 L 741.5 191 Z " /><path fill="rgb(254,186,139)" stroke="rgb(254,186,139)" stroke-width="1" opacity="0.27058823529411763" d="M 54.5 198 L 54 199.5 L 52.5 202 L 53 200.5 L 54.5 198 Z " /><path fill="rgb(254,186,139)" stroke="rgb(254,186,139)" stroke-width="1" opacity="0.27058823529411763" d="M 745.5 198 L 748 201.5 L 746 200.5 L 745.5 198 Z " /><path fill="rgb(254,186,139)" stroke="rgb(254,186,139)" stroke-width="1" opacity="0.27058823529411763" d="M 50.5 205 L 50 206.5 L 48.5 209 L 49 207.5 L 50.5 205 Z " /><path fill="rgb(254,186,139)" stroke="rgb(254,186,139)" stroke-width="1" opacity="0.27058823529411763" d="M 749.5 205 L 752 208.5 L 750 207.5 L 749.5 205 Z " /><path fill="rgb(254,186,139)" stroke="rgb(254,186,139)" stroke-width="1" opacity="0.27058823529411763" d="M 35.5 234 L 36 235.5 L 34.5 238 L 34 236.5 L 35.5 234 Z " /><path fill="rgb(254,186,139)" stroke="rgb(254,186,139)" stroke-width="1" opacity="0.27058823529411763" d="M 764.5 234 L 766 237.5 L 765 237.5 L 764.5 234 Z " /><path fill="rgb(254,186,139)" stroke="rgb(254,186,139)" stroke-width="1" opacity="0.27058823529411763" d="M 32.5 241 L 33 242.5 L 31.5 245 L 31 243.5 L 32.5 241 Z " /><path fill="rgb(254,186,139)" stroke="rgb(254,186,139)" stroke-width="1" opacity="0.27058823529411763" d="M 767.5 241 L 769 244.5 L 768 244.5 L 767.5 241 Z " /><path fill="rgb(254,186,139)" stroke="rgb(254,186,139)" stroke-width="1" opacity="0.27058823529411763" d="M 13.5 295 L 14 297.5 L 13 297.5 L 13.5 295 Z " /><path fill="rgb(254,186,139)" stroke="rgb(254,186,139)" stroke-width="1" opacity="0.27058823529411763" d="M 786.5 295 L 787 297.5 L 786 297.5 L 786.5 295 Z " /><path fill="rgb(254,186,139)" stroke="rgb(254,186,139)" stroke-width="1" opacity="0.27058823529411763" d="M 10.5 307 L 11 309.5 L 10 309.5 L 10.5 307 Z " /><path fill="rgb(254,186,139)" stroke="rgb(254,186,139)" stroke-width="1" opacity="0.27058823529411763" d="M 789.5 307 L 790 309.5 L 789 309.5 L 789.5 307 Z " /><path fill="rgb(254,186,139)" stroke="rgb(254,186,139)" stroke-width="1" opacity="0.27058823529411763" d="M 8.5 316 L 9 318.5 L 8 318.5 L 8.5 316 Z " /><path fill="rgb(254,186,139)" stroke="rgb(254,186,139)" stroke-width="1" opacity="0.27058823529411763" d="M 791.5 316 L 792 318.5 L 791 318.5 L 791.5 316 Z " /><path fill="rgb(254,186,139)" stroke="rgb(254,186,139)" stroke-width="1" opacity="0.27058823529411763" d="M 7.5 321 L 8 323.5 L 7 323.5 L 7.5 321 Z " /><path fill="rgb(254,186,139)" stroke="rgb(254,186,139)" stroke-width="1" opacity="0.27058823529411763" d="M 792.5 321 L 793 323.5 L 792 323.5 L 792.5 321 Z " /><path fill="rgb(254,186,139)" stroke="rgb(254,186,139)" stroke-width="1" opacity="0.27058823529411763" d="M 6.5 326 L 7 328.5 L 6 328.5 L 6.5 326 Z " /><path fill="rgb(254,186,139)" stroke="rgb(254,186,139)" stroke-width="1" opacity="0.27058823529411763" d="M 793.5 326 L 794 328.5 L 793 328.5 L 793.5 326 Z " /><path fill="rgb(254,186,139)" stroke="rgb(254,186,139)" stroke-width="1" opacity="0.27058823529411763" d="M 5.5 332 L 6 334.5 L 5 334.5 L 5.5 332 Z " /><path fill="rgb(254,186,139)" stroke="rgb(254,186,139)" stroke-width="1" opacity="0.27058823529411763" d="M 794.5 332 L 795 334.5 L 794 334.5 L 794.5 332 Z " /><path fill="rgb(254,186,139)" stroke="rgb(254,186,139)" stroke-width="1" opacity="0.27058823529411763" d="M 4.5 338 L 5 340.5 L 4 340.5 L 4.5 338 Z " /><path fill="rgb(254,186,139)" stroke="rgb(254,186,139)" stroke-width="1" opacity="0.27058823529411763" d="M 795.5 338 L 796 340.5 L 795 340.5 L 795.5 338 Z " /><path fill="rgb(254,186,139)" stroke="rgb(254,186,139)" stroke-width="1" opacity="0.27058823529411763" d="M 796.5 344 L 797 347.5 L 796 347.5 L 796.5 344 Z " /><path fill="rgb(254,186,139)" stroke="rgb(254,186,139)" stroke-width="1" opacity="0.27058823529411763" d="M 3.5 345 L 4 347.5 L 3 347.5 L 3.5 345 Z " /><path fill="rgb(254,186,139)" stroke="rgb(254,186,139)" stroke-width="1" opacity="0.27058823529411763" d="M 2.5 352 L 3 356.5 L 2 356.5 L 2.5 352 Z " /><path fill="rgb(254,186,139)" stroke="rgb(254,186,139)" stroke-width="1" opacity="0.27058823529411763" d="M 797.5 352 L 798 356.5 L 797 356.5 L 797.5 352 Z " /><path fill="rgb(254,186,139)" stroke="rgb(254,186,139)" stroke-width="1" opacity="0.27058823529411763" d="M 1.5 361 L 2 366.5 L 1 366.5 L 1.5 361 Z " /><path fill="rgb(254,186,139)" stroke="rgb(254,186,139)" stroke-width="1" opacity="0.27058823529411763" d="M 798.5 361 L 799 366.5 L 798 366.5 L 798.5 361 Z " /><path fill="rgb(254,186,139)" stroke="rgb(254,186,139)" stroke-width="1" opacity="0.27058823529411763" d="M 0.5 374 L 1 382.5 L 0 382.5 L 0.5 374 Z " /><path fill="rgb(254,186,139)" stroke="rgb(254,186,139)" stroke-width="1" opacity="0.27058823529411763" d="M 799.5 374 L 800 382.5 L 799 382.5 L 799.5 374 Z " /><path fill="rgb(254,186,139)" stroke="rgb(254,186,139)" stroke-width="1" opacity="0.27058823529411763" d="M 0.5 417 L 1 425.5 L 0 425.5 L 0.5 417 Z " /><path fill="rgb(254,186,139)" stroke="rgb(254,186,139)" stroke-width="1" opacity="0.27058823529411763" d="M 799.5 417 L 800 425.5 L 799 425.5 L 799.5 417 Z " /><path fill="rgb(254,186,139)" stroke="rgb(254,186,139)" stroke-width="1" opacity="0.27058823529411763" d="M 1.5 433 L 2 438.5 L 1 438.5 L 1.5 433 Z " /><path fill="rgb(254,186,139)" stroke="rgb(254,186,139)" stroke-width="1" opacity="0.27058823529411763" d="M 798.5 433 L 799 438.5 L 798 438.5 L 798.5 433 Z " /><path fill="rgb(254,186,139)" stroke="rgb(254,186,139)" stroke-width="1" opacity="0.27058823529411763" d="M 2.5 443 L 3 447.5 L 2 447.5 L 2.5 443 Z " /><path fill="rgb(254,186,139)" stroke="rgb(254,186,139)" stroke-width="1" opacity="0.27058823529411763" d="M 797.5 443 L 798 447.5 L 797 447.5 L 797.5 443 Z " /><path fill="rgb(254,186,139)" stroke="rgb(254,186,139)" stroke-width="1" opacity="0.27058823529411763" d="M 3.5 452 L 4 454.5 L 3 454.5 L 3.5 452 Z " /><path fill="rgb(254,186,139)" stroke="rgb(254,186,139)" stroke-width="1" opacity="0.27058823529411763" d="M 796.5 452 L 797 454.5 L 796 454.5 L 796.5 452 Z " /><path fill="rgb(254,186,139)" stroke="rgb(254,186,139)" stroke-width="1" opacity="0.27058823529411763" d="M 4.5 459 L 5 461.5 L 4 461.5 L 4.5 459 Z " /><path fill="rgb(254,186,139)" stroke="rgb(254,186,139)" stroke-width="1" opacity="0.27058823529411763" d="M 795.5 459 L 796 461.5 L 795 461.5 L 795.5 459 Z " /><path fill="rgb(254,186,139)" stroke="rgb(254,186,139)" stroke-width="1" opacity="0.27058823529411763" d="M 5.5 465 L 6 467.5 L 5 467.5 L 5.5 465 Z " /><path fill="rgb(254,186,139)" stroke="rgb(254,186,139)" stroke-width="1" opacity="0.27058823529411763" d="M 794.5 465 L 795 467.5 L 794 467.5 L 794.5 465 Z " /><path fill="rgb(254,186,139)" stroke="rgb(254,186,139)" stroke-width="1" opacity="0.27058823529411763" d="M 6.5 471 L 7 473.5 L 6 473.5 L 6.5 471 Z " /><path fill="rgb(254,186,139)" stroke="rgb(254,186,139)" stroke-width="1" opacity="0.27058823529411763" d="M 793.5 471 L 794 473.5 L 793 473.5 L 793.5 471 Z " /><path fill="rgb(254,186,139)" stroke="rgb(254,186,139)" stroke-width="1" opacity="0.27058823529411763" d="M 7.5 476 L 8 478.5 L 7 478.5 L 7.5 476 Z " /><path fill="rgb(254,186,139)" stroke="rgb(254,186,139)" stroke-width="1" opacity="0.27058823529411763" d="M 792.5 476 L 793 478.5 L 792 478.5 L 792.5 476 Z " /><path fill="rgb(254,186,139)" stroke="rgb(254,186,139)" stroke-width="1" opacity="0.27058823529411763" d="M 8.5 481 L 9 483.5 L 8 483.5 L 8.5 481 Z " /><path fill="rgb(254,186,139)" stroke="rgb(254,186,139)" stroke-width="1" opacity="0.27058823529411763" d="M 791.5 481 L 792 483.5 L 791 483.5 L 791.5 481 Z " /><path fill="rgb(254,186,139)" stroke="rgb(254,186,139)" stroke-width="1" opacity="0.27058823529411763" d="M 10.5 490 L 11 492.5 L 10 492.5 L 10.5 490 Z " /><path fill="rgb(254,186,139)" stroke="rgb(254,186,139)" stroke-width="1" opacity="0.27058823529411763" d="M 789.5 490 L 790 492.5 L 789 492.5 L 789.5 490 Z " /><path fill="rgb(254,186,139)" stroke="rgb(254,186,139)" stroke-width="1" opacity="0.27058823529411763" d="M 13.5 502 L 14 504.5 L 13 504.5 L 13.5 502 Z " /><path fill="rgb(254,186,139)" stroke="rgb(254,186,139)" stroke-width="1" opacity="0.27058823529411763" d="M 786.5 502 L 787 504.5 L 786 504.5 L 786.5 502 Z " /><path fill="rgb(254,186,139)" stroke="rgb(254,186,139)" stroke-width="1" opacity="0.27058823529411763" d="M 31.5 555 L 33 558.5 L 32 558.5 L 31.5 555 Z " /><path fill="rgb(254,186,139)" stroke="rgb(254,186,139)" stroke-width="1" opacity="0.27058823529411763" d="M 768.5 555 L 769 556.5 L 767.5 559 L 767 557.5 L 768.5 555 Z " /><path fill="rgb(254,186,139)" stroke="rgb(254,186,139)" stroke-width="1" opacity="0.27058823529411763" d="M 34.5 562 L 36 565.5 L 35 565.5 L 34.5 562 Z " /><path fill="rgb(254,186,139)" stroke="rgb(254,186,139)" stroke-width="1" opacity="0.27058823529411763" d="M 765.5 562 L 766 563.5 L 764.5 566 L 764 564.5 L 765.5 562 Z " /><path fill="rgb(254,186,139)" stroke="rgb(254,186,139)" stroke-width="1" opacity="0.27058823529411763" d="M 48.5 591 L 51 594.5 L 49 593.5 L 48.5 591 Z " /><path fill="rgb(254,186,139)" stroke="rgb(254,186,139)" stroke-width="1" opacity="0.27058823529411763" d="M 751.5 591 L 751 592.5 L 749.5 595 L 750 593.5 L 751.5 591 Z " /><path fill="rgb(254,186,139)" stroke="rgb(254,186,139)" stroke-width="1" opacity="0.27058823529411763" d="M 52.5 598 L 55 601.5 L 53 600.5 L 52.5 598 Z " /><path fill="rgb(254,186,139)" stroke="rgb(254,186,139)" stroke-width="1" opacity="0.27058823529411763" d="M 747.5 598 L 747 599.5 L 745.5 602 L 746 600.5 L 747.5 598 Z " /><path fill="rgb(254,186,139)" stroke="rgb(254,186,139)" stroke-width="1" opacity="0.27058823529411763" d="M 56.5 605 L 57.5 607 L 56.5 605 Z " /><path fill="rgb(254,186,139)" stroke="rgb(254,186,139)" stroke-width="1" opacity="0.27058823529411763" d="M 743.5 605 L 743 606.5 L 741.5 609 L 742 607.5 L 743.5 605 Z " /><path fill="rgb(254,186,139)" stroke="rgb(254,186,139)" stroke-width="1" opacity="0.27058823529411763" d="M 59.5 610 L 60.5 612 L 59.5 610 Z " /><path fill="rgb(254,186,139)" stroke="rgb(254,186,139)" stroke-width="1" opacity="0.27058823529411763" d="M 740.5 610 L 739.5 612 L 740.5 610 Z " /><path fill="rgb(254,186,139)" stroke="rgb(254,186,139)" stroke-width="1" opacity="0.27058823529411763" d="M 61.5 613 L 66 619.5 L 64 618.5 L 61.5 613 Z " /><path fill="rgb(254,186,139)" stroke="rgb(254,186,139)" stroke-width="1" opacity="0.27058823529411763" d="M 738.5 613 L 738 614.5 L 734.5 620 L 735 618.5 L 738.5 613 Z " /><path fill="rgb(254,186,139)" stroke="rgb(254,186,139)" stroke-width="1" opacity="0.27058823529411763" d="M 66.5 621 L 67.5 623 L 66.5 621 Z " /><path fill="rgb(254,186,139)" stroke="rgb(254,186,139)" stroke-width="1" opacity="0.27058823529411763" d="M 733.5 621 L 732.5 623 L 733.5 621 Z " /><path fill="rgb(254,186,139)" stroke="rgb(254,186,139)" stroke-width="1" opacity="0.27058823529411763" d="M 68.5 624 L 73 629.5 L 70 627.5 L 68.5 624 Z " /><path fill="rgb(254,186,139)" stroke="rgb(254,186,139)" stroke-width="1" opacity="0.27058823529411763" d="M 731.5 624 L 730 626.5 L 727.5 630 L 729 627.5 L 731.5 624 Z " /><path fill="rgb(254,186,139)" stroke="rgb(254,186,139)" stroke-width="1" opacity="0.27058823529411763" d="M 73.5 631 L 74.5 633 L 73.5 631 Z " /><path fill="rgb(254,186,139)" stroke="rgb(254,186,139)" stroke-width="1" opacity="0.27058823529411763" d="M 726.5 631 L 725.5 633 L 726.5 631 Z " /><path fill="rgb(254,186,139)" stroke="rgb(254,186,139)" stroke-width="1" opacity="0.27058823529411763" d="M 75.5 634 L 77.5 637 L 75.5 634 Z " /><path fill="rgb(254,186,139)" stroke="rgb(254,186,139)" stroke-width="1" opacity="0.27058823529411763" d="M 724.5 634 L 722.5 637 L 724.5 634 Z " /><path fill="rgb(254,186,139)" stroke="rgb(254,186,139)" stroke-width="1" opacity="0.27058823529411763" d="M 78.5 638 L 80.5 641 L 78.5 638 Z " /><path fill="rgb(254,186,139)" stroke="rgb(254,186,139)" stroke-width="1" opacity="0.27058823529411763" d="M 721.5 638 L 719.5 641 L 721.5 638 Z " /><path fill="rgb(254,186,139)" stroke="rgb(254,186,139)" stroke-width="1" opacity="0.27058823529411763" d="M 81.5 642 L 83.5 645 L 81.5 642 Z " /><path fill="rgb(254,186,139)" stroke="rgb(254,186,139)" stroke-width="1" opacity="0.27058823529411763" d="M 718.5 642 L 716.5 645 L 718.5 642 Z " /><path fill="rgb(254,186,139)" stroke="rgb(254,186,139)" stroke-width="1" opacity="0.27058823529411763" d="M 84.5 646 L 87.5 650 L 84.5 646 Z " /><path fill="rgb(254,186,139)" stroke="rgb(254,186,139)" stroke-width="1" opacity="0.27058823529411763" d="M 715.5 646 L 712.5 650 L 715.5 646 Z " /><path fill="rgb(254,186,139)" stroke="rgb(254,186,139)" stroke-width="1" opacity="0.27058823529411763" d="M 88.5 651 L 91.5 655 L 88.5 651 Z " /><path fill="rgb(254,186,139)" stroke="rgb(254,186,139)" stroke-width="1" opacity="0.27058823529411763" d="M 711.5 651 L 708.5 655 L 711.5 651 Z " /><path fill="rgb(254,186,139)" stroke="rgb(254,186,139)" stroke-width="1" opacity="0.27058823529411763" d="M 92.5 656 L 97.5 662 L 92.5 656 Z " /><path fill="rgb(254,186,139)" stroke="rgb(254,186,139)" stroke-width="1" opacity="0.27058823529411763" d="M 707.5 656 L 702.5 662 L 707.5 656 Z " /><path fill="rgb(254,186,139)" stroke="rgb(254,186,139)" stroke-width="1" opacity="0.27058823529411763" d="M 98.5 663 L 106.5 672 L 98.5 663 Z " /><path fill="rgb(254,186,139)" stroke="rgb(254,186,139)" stroke-width="1" opacity="0.27058823529411763" d="M 701.5 663 L 693.5 672 L 701.5 663 Z " /><path fill="rgb(254,186,139)" stroke="rgb(254,186,139)" stroke-width="1" opacity="0.27058823529411763" d="M 108.5 674 L 125.5 692 L 108.5 674 Z " /><path fill="rgb(254,186,139)" stroke="rgb(254,186,139)" stroke-width="1" opacity="0.27058823529411763" d="M 691.5 674 L 673.5 693 L 691.5 674 Z " /><path fill="rgb(254,186,139)" stroke="rgb(254,186,139)" stroke-width="1" opacity="0.27058823529411763" d="M 128.5 693 L 136.5 702 L 128.5 693 Z " /><path fill="rgb(254,186,139)" stroke="rgb(254,186,139)" stroke-width="1" opacity="0.27058823529411763" d="M 670.5 694 L 663.5 702 L 670.5 694 Z " /><path fill="rgb(254,186,139)" stroke="rgb(254,186,139)" stroke-width="1" opacity="0.27058823529411763" d="M 138.5 702 L 143.5 708 L 138.5 702 Z " /><path fill="rgb(254,186,139)" stroke="rgb(254,186,139)" stroke-width="1" opacity="0.27058823529411763" d="M 661.5 702 L 656.5 708 L 661.5 702 Z " /><path fill="rgb(254,186,139)" stroke="rgb(254,186,139)" stroke-width="1" opacity="0.27058823529411763" d="M 145.5 708 L 148.5 712 L 145.5 708 Z " /><path fill="rgb(254,186,139)" stroke="rgb(254,186,139)" stroke-width="1" opacity="0.27058823529411763" d="M 654.5 708 L 651.5 712 L 654.5 708 Z " /><path fill="rgb(254,186,139)" stroke="rgb(254,186,139)" stroke-width="1" opacity="0.27058823529411763" d="M 150.5 712 L 153.5 716 L 150.5 712 Z " /><path fill="rgb(254,186,139)" stroke="rgb(254,186,139)" stroke-width="1" opacity="0.27058823529411763" d="M 649.5 712 L 646.5 716 L 649.5 712 Z " /><path fill="rgb(254,186,139)" stroke="rgb(254,186,139)" stroke-width="1" opacity="0.27058823529411763" d="M 155.5 716 L 157.5 719 L 155.5 716 Z " /><path fill="rgb(254,186,139)" stroke="rgb(254,186,139)" stroke-width="1" opacity="0.27058823529411763" d="M 644.5 716 L 642.5 719 L 644.5 716 Z " /><path fill="rgb(254,186,139)" stroke="rgb(254,186,139)" stroke-width="1" opacity="0.27058823529411763" d="M 159.5 719 L 161.5 722 L 159.5 719 Z " /><path fill="rgb(254,186,139)" stroke="rgb(254,186,139)" stroke-width="1" opacity="0.27058823529411763" d="M 640.5 719 L 638.5 722 L 640.5 719 Z " /><path fill="rgb(254,186,139)" stroke="rgb(254,186,139)" stroke-width="1" opacity="0.27058823529411763" d="M 163.5 722 L 165.5 725 L 163.5 722 Z " /><path fill="rgb(254,186,139)" stroke="rgb(254,186,139)" stroke-width="1" opacity="0.27058823529411763" d="M 636.5 722 L 634.5 725 L 636.5 722 Z " /><path fill="rgb(254,186,139)" stroke="rgb(254,186,139)" stroke-width="1" opacity="0.27058823529411763" d="M 167.5 725 L 168.5 727 L 167.5 725 Z " /><path fill="rgb(254,186,139)" stroke="rgb(254,186,139)" stroke-width="1" opacity="0.27058823529411763" d="M 632.5 725 L 631.5 727 L 632.5 725 Z " /><path fill="rgb(254,186,139)" stroke="rgb(254,186,139)" stroke-width="1" opacity="0.27058823529411763" d="M 170.5 727 L 176 731.5 L 173.5 730 L 170.5 727 Z " /><path fill="rgb(254,186,139)" stroke="rgb(254,186,139)" stroke-width="1" opacity="0.27058823529411763" d="M 629.5 727 L 627.5 730 L 624.5 732 L 626.5 729 L 629.5 727 Z " /><path fill="rgb(254,186,139)" stroke="rgb(254,186,139)" stroke-width="1" opacity="0.27058823529411763" d="M 177.5 732 L 178.5 734 L 177.5 732 Z " /><path fill="rgb(254,186,139)" stroke="rgb(254,186,139)" stroke-width="1" opacity="0.27058823529411763" d="M 622.5 732 L 621.5 734 L 622.5 732 Z " /><path fill="rgb(254,186,139)" stroke="rgb(254,186,139)" stroke-width="1" opacity="0.27058823529411763" d="M 180.5 734 L 187 738.5 L 185.5 738 Q 180.9 736.8 180.5 734 Z " /><path fill="rgb(254,186,139)" stroke="rgb(254,186,139)" stroke-width="1" opacity="0.27058823529411763" d="M 619.5 734 L 618.5 736 L 616.5 737 L 617.5 735 L 619.5 734 Z " /><path fill="rgb(254,186,139)" stroke="rgb(254,186,139)" stroke-width="1" opacity="0.27058823529411763" d="M 614.5 737 L 613.5 739 L 614.5 737 Z " /><path fill="rgb(254,186,139)" stroke="rgb(254,186,139)" stroke-width="1" opacity="0.27058823529411763" d="M 188.5 739 L 189.5 741 L 188.5 739 Z " /><path fill="rgb(254,186,139)" stroke="rgb(254,186,139)" stroke-width="1" opacity="0.27058823529411763" d="M 611.5 739 L 610.5 741 L 611.5 739 Z " /><path fill="rgb(254,186,139)" stroke="rgb(254,186,139)" stroke-width="1" opacity="0.27058823529411763" d="M 193.5 742 L 194.5 744 L 193.5 742 Z " /><path fill="rgb(254,186,139)" stroke="rgb(254,186,139)" stroke-width="1" opacity="0.27058823529411763" d="M 606.5 742 L 605.5 744 L 606.5 742 Z " /><path fill="rgb(254,186,139)" stroke="rgb(254,186,139)" stroke-width="1" opacity="0.27058823529411763" d="M 198.5 745 L 202 747.5 L 200.5 747 L 198.5 745 Z " /><path fill="rgb(254,186,139)" stroke="rgb(254,186,139)" stroke-width="1" opacity="0.27058823529411763" d="M 601.5 745 L 600.5 747 L 598.5 748 L 599.5 746 L 601.5 745 Z " /><path fill="rgb(254,186,139)" stroke="rgb(254,186,139)" stroke-width="1" opacity="0.27058823529411763" d="M 205.5 749 L 209 751.5 L 207.5 751 L 205.5 749 Z " /><path fill="rgb(254,186,139)" stroke="rgb(254,186,139)" stroke-width="1" opacity="0.27058823529411763" d="M 594.5 749 L 593.5 751 L 591.5 752 L 592.5 750 L 594.5 749 Z " /><path fill="rgb(254,186,139)" stroke="rgb(254,186,139)" stroke-width="1" opacity="0.27058823529411763" d="M 234.5 764 L 238 765.5 L 236.5 766 L 234.5 764 Z " /><path fill="rgb(254,186,139)" stroke="rgb(254,186,139)" stroke-width="1" opacity="0.27058823529411763" d="M 564.5 764 L 566 764.5 L 562.5 766 L 562.5 765 L 564.5 764 Z " /><path fill="rgb(254,186,139)" stroke="rgb(254,186,139)" stroke-width="1" opacity="0.27058823529411763" d="M 241.5 767 L 245 768.5 L 243.5 769 L 241.5 767 Z " /><path fill="rgb(254,186,139)" stroke="rgb(254,186,139)" stroke-width="1" opacity="0.27058823529411763" d="M 557.5 767 L 559 767.5 L 555.5 769 L 555.5 768 L 557.5 767 Z " /><path fill="rgb(254,186,139)" stroke="rgb(254,186,139)" stroke-width="1" opacity="0.27058823529411763" d="M 295.5 786 L 298 786.5 L 295.5 787 L 295.5 786 Z " /><path fill="rgb(254,186,139)" stroke="rgb(254,186,139)" stroke-width="1" opacity="0.27058823529411763" d="M 502.5 786 L 505 786.5 L 502.5 787 L 502.5 786 Z " /><path fill="rgb(254,186,139)" stroke="rgb(254,186,139)" stroke-width="1" opacity="0.27058823529411763" d="M 307.5 789 L 310 789.5 L 307.5 790 L 307.5 789 Z " /><path fill="rgb(254,186,139)" stroke="rgb(254,186,139)" stroke-width="1" opacity="0.27058823529411763" d="M 490.5 789 L 493 789.5 L 490.5 790 L 490.5 789 Z " /><path fill="rgb(254,186,139)" stroke="rgb(254,186,139)" stroke-width="1" opacity="0.27058823529411763" d="M 316.5 791 L 319 791.5 L 316.5 792 L 316.5 791 Z " /><path fill="rgb(254,186,139)" stroke="rgb(254,186,139)" stroke-width="1" opacity="0.27058823529411763" d="M 481.5 791 L 484 791.5 L 481.5 792 L 481.5 791 Z " /><path fill="rgb(254,186,139)" stroke="rgb(254,186,139)" stroke-width="1" opacity="0.27058823529411763" d="M 321.5 792 L 324 792.5 L 321.5 793 L 321.5 792 Z " /><path fill="rgb(254,186,139)" stroke="rgb(254,186,139)" stroke-width="1" opacity="0.27058823529411763" d="M 476.5 792 L 479 792.5 L 476.5 793 L 476.5 792 Z " /><path fill="rgb(254,186,139)" stroke="rgb(254,186,139)" stroke-width="1" opacity="0.27058823529411763" d="M 326.5 793 L 329 793.5 L 326.5 794 L 326.5 793 Z " /><path fill="rgb(254,186,139)" stroke="rgb(254,186,139)" stroke-width="1" opacity="0.27058823529411763" d="M 471.5 793 L 474 793.5 L 471.5 794 L 471.5 793 Z " /><path fill="rgb(254,186,139)" stroke="rgb(254,186,139)" stroke-width="1" opacity="0.27058823529411763" d="M 332.5 794 L 335 794.5 L 332.5 795 L 332.5 794 Z " /><path fill="rgb(254,186,139)" stroke="rgb(254,186,139)" stroke-width="1" opacity="0.27058823529411763" d="M 465.5 794 L 468 794.5 L 465.5 795 L 465.5 794 Z " /><path fill="rgb(254,186,139)" stroke="rgb(254,186,139)" stroke-width="1" opacity="0.27058823529411763" d="M 338.5 795 L 341 795.5 L 338.5 796 L 338.5 795 Z " /><path fill="rgb(254,186,139)" stroke="rgb(254,186,139)" stroke-width="1" opacity="0.27058823529411763" d="M 459.5 795 L 462 795.5 L 459.5 796 L 459.5 795 Z " /><path fill="rgb(254,186,139)" stroke="rgb(254,186,139)" stroke-width="1" opacity="0.27058823529411763" d="M 345.5 796 L 348 796.5 L 345.5 797 L 345.5 796 Z " /><path fill="rgb(254,186,139)" stroke="rgb(254,186,139)" stroke-width="1" opacity="0.27058823529411763" d="M 452.5 796 L 455 796.5 L 452.5 797 L 452.5 796 Z " /><path fill="rgb(254,186,139)" stroke="rgb(254,186,139)" stroke-width="1" opacity="0.27058823529411763" d="M 352.5 797 L 357 797.5 L 352.5 798 L 352.5 797 Z " /><path fill="rgb(254,186,139)" stroke="rgb(254,186,139)" stroke-width="1" opacity="0.27058823529411763" d="M 443.5 797 L 448 797.5 L 443.5 798 L 443.5 797 Z " /><path fill="rgb(254,186,139)" stroke="rgb(254,186,139)" stroke-width="1" opacity="0.27058823529411763" d="M 361.5 798 L 367 798.5 L 361.5 799 L 361.5 798 Z " /><path fill="rgb(254,186,139)" stroke="rgb(254,186,139)" stroke-width="1" opacity="0.27058823529411763" d="M 433.5 798 L 439 798.5 L 433.5 799 L 433.5 798 Z " /><path fill="rgb(254,186,139)" stroke="rgb(254,186,139)" stroke-width="1" opacity="0.27058823529411763" d="M 374.5 799 L 383 799.5 L 374.5 800 L 374.5 799 Z " /><path fill="rgb(254,186,139)" stroke="rgb(254,186,139)" stroke-width="1" opacity="0.27058823529411763" d="M 417.5 799 L 426 799.5 L 417.5 800 L 417.5 799 Z " /><path fill="rgb(0,0,0)" stroke="rgb(0,0,0)" stroke-width="1" opacity="0" d="M 0.5 0 L 371 0.5 L 336.5 4 L 298.5 12 L 260.5 24 L 231.5 36 Q 155.9 71.9 103 130.5 Q 59.7 177.7 32 240.5 Q 18.7 271.2 10 306.5 L 4 336.5 L 0.5 371 L 0.5 0 Z " /><path fill="rgb(0,0,0)" stroke="rgb(0,0,0)" stroke-width="1" opacity="0" d="M 429.5 0 L 800 0.5 L 799.5 371 L 796 336.5 L 788 298.5 L 776 260.5 L 764 231.5 Q 728.1 155.9 669.5 103 Q 622.3 59.7 559.5 32 Q 528.8 18.7 493.5 10 L 456.5 3 L 429.5 1 L 429.5 0 Z " /><path fill="rgb(0,0,0)" stroke="rgb(0,0,0)" stroke-width="1" opacity="0" d="M 0.5 429 L 4 463.5 L 12 501.5 L 24 539.5 L 36 568.5 Q 71.9 644.1 130.5 697 Q 177.7 740.3 240.5 768 Q 271.2 781.3 306.5 790 L 336.5 796 L 371 799.5 L 0.5 800 L 0.5 429 Z " /><path fill="rgb(0,0,0)" stroke="rgb(0,0,0)" stroke-width="1" opacity="0" d="M 799.5 429 L 800 799.5 L 429.5 800 L 429.5 799 L 439.5 799 L 440.5 798 L 463.5 796 L 501.5 788 L 539.5 776 L 568.5 764 Q 644.1 728.1 697 669.5 Q 740.3 622.3 768 559.5 Q 781.3 528.8 790 493.5 L 796 463.5 L 799.5 429 Z " /><path fill="rgb(254,184,135)" stroke="rgb(254,184,135)" stroke-width="1" opacity="0.09019607843137255" d="M 371.5 0 L 374 0.5 L 371.5 1 L 371.5 0 Z " /><path fill="rgb(254,184,135)" stroke="rgb(254,184,135)" stroke-width="1" opacity="0.09019607843137255" d="M 426.5 0 L 429 0.5 L 426.5 1 L 426.5 0 Z " /><path fill="rgb(254,184,135)" stroke="rgb(254,184,135)" stroke-width="1" opacity="0.09019607843137255" d="M 150.5 86 L 149.5 88 L 150.5 86 Z " /><path fill="rgb(254,184,135)" stroke="rgb(254,184,135)" stroke-width="1" opacity="0.09019607843137255" d="M 649.5 86 L 650.5 88 L 649.5 86 Z " /><path fill="rgb(254,184,135)" stroke="rgb(254,184,135)" stroke-width="1" opacity="0.09019607843137255" d="M 145.5 90 L 144.5 92 L 145.5 90 Z " /><path fill="rgb(254,184,135)" stroke="rgb(254,184,135)" stroke-width="1" opacity="0.09019607843137255" d="M 654.5 90 L 655.5 92 L 654.5 90 Z " /><path fill="rgb(254,184,135)" stroke="rgb(254,184,135)" stroke-width="1" opacity="0.09019607843137255" d="M 138.5 96 L 137.5 98 L 138.5 96 Z " /><path fill="rgb(254,184,135)" stroke="rgb(254,184,135)" stroke-width="1" opacity="0.09019607843137255" d="M 661.5 96 L 662.5 98 L 661.5 96 Z " /><path fill="rgb(254,184,135)" stroke="rgb(254,184,135)" stroke-width="1" opacity="0.09019607843137255" d="M 130.5 103 L 127.5 107 L 130.5 103 Z " /><path fill="rgb(254,184,135)" stroke="rgb(254,184,135)" stroke-width="1" opacity="0.09019607843137255" d="M 669.5 103 L 672.5 107 L 669.5 103 Z " /><path fill="rgb(254,184,135)" stroke="rgb(254,184,135)" stroke-width="1" opacity="0.09019607843137255" d="M 107.5 126 L 103.5 131 L 107.5 126 Z " /><path fill="rgb(254,184,135)" stroke="rgb(254,184,135)" stroke-width="1" opacity="0.09019607843137255" d="M 693.5 127 L 696.5 131 L 693.5 127 Z " /><path fill="rgb(254,184,135)" stroke="rgb(254,184,135)" stroke-width="1" opacity="0.09019607843137255" d="M 97.5 137 L 96.5 139 L 97.5 137 Z " /><path fill="rgb(254,184,135)" stroke="rgb(254,184,135)" stroke-width="1" opacity="0.09019607843137255" d="M 702.5 137 L 703.5 139 L 702.5 137 Z " /><path fill="rgb(254,184,135)" stroke="rgb(254,184,135)" stroke-width="1" opacity="0.09019607843137255" d="M 91.5 144 L 90.5 146 L 91.5 144 Z " /><path fill="rgb(254,184,135)" stroke="rgb(254,184,135)" stroke-width="1" opacity="0.09019607843137255" d="M 708.5 144 L 709.5 146 L 708.5 144 Z " /><path fill="rgb(254,184,135)" stroke="rgb(254,184,135)" stroke-width="1" opacity="0.09019607843137255" d="M 87.5 149 L 86.5 151 L 87.5 149 Z " /><path fill="rgb(254,184,135)" stroke="rgb(254,184,135)" stroke-width="1" opacity="0.09019607843137255" d="M 712.5 149 L 713.5 151 L 712.5 149 Z " /><path fill="rgb(254,184,135)" stroke="rgb(254,184,135)" stroke-width="1" opacity="0.09019607843137255" d="M 0.5 371 L 1 373.5 L 0 373.5 L 0.5 371 Z " /><path fill="rgb(254,184,135)" stroke="rgb(254,184,135)" stroke-width="1" opacity="0.09019607843137255" d="M 799.5 371 L 800 373.5 L 799 373.5 L 799.5 371 Z " /><path fill="rgb(254,184,135)" stroke="rgb(254,184,135)" stroke-width="1" opacity="0.09019607843137255" d="M 0.5 426 L 1 428.5 L 0 428.5 L 0.5 426 Z " /><path fill="rgb(254,184,135)" stroke="rgb(254,184,135)" stroke-width="1" opacity="0.09019607843137255" d="M 799.5 426 L 800 428.5 L 799 428.5 L 799.5 426 Z " /><path fill="rgb(254,184,135)" stroke="rgb(254,184,135)" stroke-width="1" opacity="0.09019607843137255" d="M 86.5 649 L 87.5 651 L 86.5 649 Z " /><path fill="rgb(254,184,135)" stroke="rgb(254,184,135)" stroke-width="1" opacity="0.09019607843137255" d="M 713.5 649 L 712.5 651 L 713.5 649 Z " /><path fill="rgb(254,184,135)" stroke="rgb(254,184,135)" stroke-width="1" opacity="0.09019607843137255" d="M 90.5 654 L 91.5 656 L 90.5 654 Z " /><path fill="rgb(254,184,135)" stroke="rgb(254,184,135)" stroke-width="1" opacity="0.09019607843137255" d="M 709.5 654 L 708.5 656 L 709.5 654 Z " /><path fill="rgb(254,184,135)" stroke="rgb(254,184,135)" stroke-width="1" opacity="0.09019607843137255" d="M 96.5 661 L 97.5 663 L 96.5 661 Z " /><path fill="rgb(254,184,135)" stroke="rgb(254,184,135)" stroke-width="1" opacity="0.09019607843137255" d="M 703.5 661 L 702.5 663 L 703.5 661 Z " /><path fill="rgb(254,184,135)" stroke="rgb(254,184,135)" stroke-width="1" opacity="0.09019607843137255" d="M 103.5 669 L 107.5 674 L 103.5 669 Z " /><path fill="rgb(254,184,135)" stroke="rgb(254,184,135)" stroke-width="1" opacity="0.09019607843137255" d="M 696.5 669 L 692.5 674 L 696.5 669 Z " /><path fill="rgb(254,184,135)" stroke="rgb(254,184,135)" stroke-width="1" opacity="0.09019607843137255" d="M 126.5 692 L 130.5 697 L 126.5 692 Z " /><path fill="rgb(254,184,135)" stroke="rgb(254,184,135)" stroke-width="1" opacity="0.09019607843137255" d="M 672.5 693 L 669.5 697 L 672.5 693 Z " /><path fill="rgb(254,184,135)" stroke="rgb(254,184,135)" stroke-width="1" opacity="0.09019607843137255" d="M 137.5 702 L 138.5 704 L 137.5 702 Z " /><path fill="rgb(254,184,135)" stroke="rgb(254,184,135)" stroke-width="1" opacity="0.09019607843137255" d="M 662.5 702 L 661.5 704 L 662.5 702 Z " /><path fill="rgb(254,184,135)" stroke="rgb(254,184,135)" stroke-width="1" opacity="0.09019607843137255" d="M 144.5 708 L 145.5 710 L 144.5 708 Z " /><path fill="rgb(254,184,135)" stroke="rgb(254,184,135)" stroke-width="1" opacity="0.09019607843137255" d="M 655.5 708 L 654.5 710 L 655.5 708 Z " /><path fill="rgb(254,184,135)" stroke="rgb(254,184,135)" stroke-width="1" opacity="0.09019607843137255" d="M 149.5 712 L 150.5 714 L 149.5 712 Z " /><path fill="rgb(254,184,135)" stroke="rgb(254,184,135)" stroke-width="1" opacity="0.09019607843137255" d="M 650.5 712 L 649.5 714 L 650.5 712 Z " /><path fill="rgb(254,184,135)" stroke="rgb(254,184,135)" stroke-width="1" opacity="0.09019607843137255" d="M 371.5 799 L 374 799.5 L 371.5 800 L 371.5 799 Z " /><path fill="rgb(254,184,135)" stroke="rgb(254,184,135)" stroke-width="1" opacity="0.09019607843137255" d="M 426.5 799 L 429 799.5 L 426.5 800 L 426.5 799 Z " /><path fill="rgb(96,79,64)" stroke="rgb(96,79,64)" stroke-width="1" opacity="0.996078431372549" d="M 404.5 397 Q 410.8 395.8 412 399.5 L 416.5 406 L 418 405.5 L 423.5 397 L 428 397.5 L 427 401.5 L 420 411.5 L 420 422.5 L 418.5 424 Q 414 425 413 422.5 L 413 411.5 Q 405.7 405.8 404.5 397 Z " /><path fill="rgb(96,79,64)" stroke="rgb(96,79,64)" stroke-width="1" opacity="0.996078431372549" d="M 436.5 397 L 452.5 397 L 454 398.5 Q 454.8 402.3 452.5 403 L 441 403.5 L 441.5 408 L 452 408.5 L 451.5 413 L 441 413.5 L 441.5 418 L 454 419.5 L 453.5 424 L 436.5 424 L 435 422.5 L 435 398.5 L 436.5 397 Z " /><path fill="rgb(96,79,64)" stroke="rgb(96,79,64)" stroke-width="1" opacity="0.996078431372549" d="M 461.5 397 L 480.5 397 L 482 398.5 Q 482.8 402.3 480.5 403 L 474 403.5 L 473.5 424 Q 469 425 468 422.5 L 467.5 403 Q 461.5 404.5 460 401.5 Q 459.3 397.8 461.5 397 Z " /><path fill="rgb(96,79,64)" stroke="rgb(96,79,64)" stroke-width="1" opacity="0.996078431372549" d="M 506.5 397 L 521.5 397 L 523 398.5 L 522.5 403 L 511 403.5 L 511.5 408 L 520.5 408 L 522 409.5 L 520.5 413 L 511 413.5 L 511.5 418 L 524 419.5 Q 524.8 423.3 522.5 424 L 506.5 424 L 505 422.5 L 505 398.5 L 506.5 397 Z " /><path fill="rgb(96,79,64)" stroke="rgb(96,79,64)" stroke-width="1" opacity="0.996078431372549" d="M 530.5 397 Q 535 396 536 398.5 L 542.5 415 L 549.5 397 L 554 397.5 L 554 400.5 Q 549.5 407 548 416.5 L 543.5 424 Q 538.8 424.8 538 421.5 L 529 398.5 L 530.5 397 Z " /><path fill="rgb(96,79,64)" stroke="rgb(96,79,64)" stroke-width="1" opacity="0.996078431372549" d="M 562.5 397 L 578.5 397 L 580 398.5 Q 580.8 402.3 578.5 403 L 567 403.5 Q 566.3 407.3 568.5 408 L 578 408.5 L 577.5 413 L 568.5 413 L 567 414.5 Q 566.3 418.3 568.5 419 L 570.5 419 L 580 419.5 L 579.5 424 L 562 423.5 L 561 421.5 L 561 398.5 L 562.5 397 Z " /><path fill="rgb(96,79,64)" stroke="rgb(96,79,64)" stroke-width="1" opacity="0.996078431372549" d="M 589.5 397 Q 602.6 394.9 608 400.5 L 609 409.5 L 605 414.5 L 610 423.5 L 604.5 424 L 598.5 415 L 595 415.5 Q 596.8 422.3 593.5 424 L 589 423.5 L 589.5 397 Z M 596 402 Q 593 403 594 408 L 598 410 L 602 409 Q 604 408 603 405 Q 601 401 596 402 Z " /><path fill="rgb(96,79,64)" stroke="rgb(96,79,64)" stroke-width="1" opacity="0.996078431372549" d="M 615.5 397 Q 621 396 622 399.5 L 626.5 406 L 629 404.5 L 633.5 397 L 639 397.5 L 630 412.5 L 630 422.5 L 628.5 424 L 624 423.5 L 624 412.5 L 614 398.5 L 615.5 397 Z " /><path fill="rgb(96,79,64)" stroke="rgb(96,79,64)" stroke-width="1" opacity="0.996078431372549" d="M 645.5 397 L 664.5 397 L 666 398.5 Q 666.8 402.3 664.5 403 L 658 403.5 L 658 422.5 L 656.5 424 L 652 423.5 L 652 404.5 L 650.5 403 Q 645.3 404.3 644 401.5 Q 643.3 397.8 645.5 397 Z " /><path fill="rgb(96,79,64)" stroke="rgb(96,79,64)" stroke-width="1" opacity="0.996078431372549" d="M 674.5 397 Q 678.3 396.3 679 398.5 L 679 406.5 L 680.5 408 L 689 407.5 L 689 398.5 L 690.5 397 Q 695 396 696 398.5 L 696 422.5 L 694.5 424 Q 690 425 689 422.5 L 688.5 413 L 679 413.5 L 679 422.5 L 677.5 424 Q 673.8 424.8 673 422.5 L 673 398.5 L 674.5 397 Z " /><path fill="rgb(96,79,64)" stroke="rgb(96,79,64)" stroke-width="1" opacity="0.996078431372549" d="M 705.5 397 L 717.5 397 L 719 398.5 Q 719.8 402.3 717.5 403 L 715 403.5 L 715.5 418 L 719 419.5 Q 719.8 423.3 717.5 424 L 705.5 424 L 704 422.5 L 704.5 419 L 708 418.5 L 709 405.5 L 707.5 403 L 704 401.5 Q 703.3 397.8 705.5 397 Z " /><path fill="rgb(96,79,64)" stroke="rgb(96,79,64)" stroke-width="1" opacity="0.996078431372549" d="M 728.5 397 L 732.5 397 L 737 401.5 L 745.5 413 L 746.5 397 Q 751 396 752 398.5 L 752 422.5 L 750.5 424 Q 744 425 743 420.5 L 734.5 408 L 734 422.5 L 732.5 424 Q 728.8 424.8 728 422.5 L 728.5 397 Z " /><path fill="rgb(96,79,64)" stroke="rgb(96,79,64)" stroke-width="1" opacity="0.996078431372549" d="M 769.5 397 Q 779.6 395.4 783 400.5 Q 783.5 404.5 780.5 405 L 773.5 402 L 767 405.5 L 766 412.5 L 768.5 417 L 774.5 419 L 780 415.5 L 779.5 414 Q 774.3 415.3 773 412.5 L 774.5 409 L 784.5 409 L 786 410.5 L 786 415.5 L 781.5 422 Q 777.8 425.3 769.5 424 L 762 419.5 Q 758.3 415.2 760 405.5 L 765.5 399 L 769.5 397 Z " /><path fill="rgb(96,79,64)" stroke="rgb(96,79,64)" stroke-width="1" opacity="0.996078431372549" d="M 66.5 401 L 68 403.5 L 66 402.5 L 66.5 401 Z " /><path fill="rgb(96,79,64)" stroke="rgb(96,79,64)" stroke-width="1" opacity="0.996078431372549" d="M 263.5 401 L 267 405.5 L 264 403.5 L 263.5 401 Z " /><path fill="rgb(96,79,64)" stroke="rgb(96,79,64)" stroke-width="1" opacity="0.996078431372549" d="M 81.5 404 L 83 404.5 L 82.5 407 L 81.5 404 Z " /><path fill="rgb(96,79,64)" stroke="rgb(96,79,64)" stroke-width="1" opacity="0.996078431372549" d="M 279.5 404 L 281 406.5 L 279 405.5 L 279.5 404 Z " /></svg>